<svg xmlns="http://www.w3.org/2000/svg" viewBox="0 0 20 20" shape-rendering="crispEdges">
  <!-- Left ear -->
  <rect x="2" y="0" width="1" height="1" fill="#333"/>
  <rect x="3" y="0" width="1" height="1" fill="#333"/>
  <rect x="2" y="1" width="1" height="1" fill="#333"/>
  <rect x="3" y="1" width="1" height="1" fill="#F5D442"/>
  <rect x="4" y="1" width="1" height="1" fill="#333"/>
  <rect x="3" y="2" width="1" height="1" fill="#F5D442"/>
  <rect x="4" y="2" width="1" height="1" fill="#F5D442"/>
  <rect x="5" y="2" width="1" height="1" fill="#333"/>
  <rect x="4" y="3" width="1" height="1" fill="#F5D442"/>
  <rect x="5" y="3" width="1" height="1" fill="#F5D442"/>
  <rect x="6" y="3" width="1" height="1" fill="#333"/>
  <!-- Right ear -->
  <rect x="16" y="0" width="1" height="1" fill="#333"/>
  <rect x="17" y="0" width="1" height="1" fill="#333"/>
  <rect x="15" y="1" width="1" height="1" fill="#333"/>
  <rect x="16" y="1" width="1" height="1" fill="#F5D442"/>
  <rect x="17" y="1" width="1" height="1" fill="#333"/>
  <rect x="14" y="2" width="1" height="1" fill="#333"/>
  <rect x="15" y="2" width="1" height="1" fill="#F5D442"/>
  <rect x="16" y="2" width="1" height="1" fill="#F5D442"/>
  <rect x="13" y="3" width="1" height="1" fill="#333"/>
  <rect x="14" y="3" width="1" height="1" fill="#F5D442"/>
  <rect x="15" y="3" width="1" height="1" fill="#F5D442"/>
  <!-- Head -->
  <rect x="5" y="4" width="1" height="1" fill="#333"/>
  <rect x="6" y="4" width="8" height="1" fill="#F5D442"/>
  <rect x="14" y="4" width="1" height="1" fill="#333"/>
  <rect x="4" y="5" width="1" height="1" fill="#333"/>
  <rect x="5" y="5" width="10" height="1" fill="#F5D442"/>
  <rect x="15" y="5" width="1" height="1" fill="#333"/>
  <!-- Eyes row -->
  <rect x="4" y="6" width="1" height="1" fill="#333"/>
  <rect x="5" y="6" width="2" height="1" fill="#F5D442"/>
  <rect x="7" y="6" width="1" height="1" fill="#333"/>
  <rect x="8" y="6" width="3" height="1" fill="#F5D442"/>
  <rect x="11" y="6" width="1" height="1" fill="#333"/>
  <rect x="12" y="6" width="3" height="1" fill="#F5D442"/>
  <rect x="15" y="6" width="1" height="1" fill="#333"/>
  <!-- Cheeks row -->
  <rect x="4" y="7" width="1" height="1" fill="#333"/>
  <rect x="5" y="7" width="1" height="1" fill="#E83030"/>
  <rect x="6" y="7" width="1" height="1" fill="#F5D442"/>
  <rect x="7" y="7" width="1" height="1" fill="#F5D442"/>
  <rect x="8" y="7" width="3" height="1" fill="#F5D442"/>
  <rect x="11" y="7" width="1" height="1" fill="#F5D442"/>
  <rect x="12" y="7" width="1" height="1" fill="#F5D442"/>
  <rect x="13" y="7" width="1" height="1" fill="#E83030"/>
  <rect x="14" y="7" width="1" height="1" fill="#F5D442"/>
  <rect x="15" y="7" width="1" height="1" fill="#333"/>
  <!-- Mouth / smile -->
  <rect x="4" y="8" width="1" height="1" fill="#333"/>
  <rect x="5" y="8" width="3" height="1" fill="#F5D442"/>
  <rect x="8" y="8" width="1" height="1" fill="#333"/>
  <rect x="9" y="8" width="1" height="1" fill="#F5D442"/>
  <rect x="10" y="8" width="1" height="1" fill="#333"/>
  <rect x="11" y="8" width="4" height="1" fill="#F5D442"/>
  <rect x="15" y="8" width="1" height="1" fill="#333"/>
  <!-- Body -->
  <rect x="4" y="9" width="1" height="1" fill="#333"/>
  <rect x="5" y="9" width="10" height="1" fill="#F5D442"/>
  <rect x="15" y="9" width="1" height="1" fill="#333"/>
  <rect x="5" y="10" width="1" height="1" fill="#333"/>
  <rect x="6" y="10" width="8" height="1" fill="#F5D442"/>
  <rect x="14" y="10" width="1" height="1" fill="#333"/>
  <!-- Belly -->
  <rect x="5" y="11" width="1" height="1" fill="#333"/>
  <rect x="6" y="11" width="3" height="1" fill="#F5D442"/>
  <rect x="9" y="11" width="2" height="1" fill="#F0CC32"/>
  <rect x="11" y="11" width="3" height="1" fill="#F5D442"/>
  <rect x="14" y="11" width="1" height="1" fill="#333"/>
  <rect x="5" y="12" width="1" height="1" fill="#333"/>
  <rect x="6" y="12" width="8" height="1" fill="#F5D442"/>
  <rect x="14" y="12" width="1" height="1" fill="#333"/>
  <!-- Tail -->
  <rect x="15" y="10" width="1" height="1" fill="#333"/>
  <rect x="16" y="9" width="1" height="1" fill="#333"/>
  <rect x="16" y="10" width="1" height="1" fill="#F5D442"/>
  <rect x="17" y="8" width="1" height="1" fill="#333"/>
  <rect x="17" y="9" width="1" height="1" fill="#F5D442"/>
  <rect x="17" y="10" width="1" height="1" fill="#333"/>
  <rect x="18" y="7" width="1" height="1" fill="#333"/>
  <rect x="18" y="8" width="1" height="1" fill="#F5D442"/>
  <rect x="18" y="9" width="1" height="1" fill="#333"/>
  <rect x="17" y="6" width="1" height="1" fill="#333"/>
  <rect x="18" y="6" width="1" height="1" fill="#C89820"/>
  <rect x="19" y="6" width="1" height="1" fill="#333"/>
  <rect x="18" y="7" width="1" height="1" fill="#F5D442"/>
  <rect x="19" y="7" width="1" height="1" fill="#333"/>
  <!-- Feet -->
  <rect x="5" y="13" width="1" height="1" fill="#333"/>
  <rect x="6" y="13" width="3" height="1" fill="#F5D442"/>
  <rect x="9" y="13" width="2" height="1" fill="#333"/>
  <rect x="11" y="13" width="3" height="1" fill="#F5D442"/>
  <rect x="14" y="13" width="1" height="1" fill="#333"/>
  <rect x="4" y="14" width="1" height="1" fill="#333"/>
  <rect x="5" y="14" width="3" height="1" fill="#F5D442"/>
  <rect x="8" y="14" width="1" height="1" fill="#333"/>
  <rect x="11" y="14" width="1" height="1" fill="#333"/>
  <rect x="12" y="14" width="3" height="1" fill="#F5D442"/>
  <rect x="15" y="14" width="1" height="1" fill="#333"/>
  <rect x="4" y="15" width="1" height="1" fill="#333"/>
  <rect x="5" y="15" width="3" height="1" fill="#333"/>
  <rect x="12" y="15" width="3" height="1" fill="#333"/>
  <rect x="15" y="15" width="1" height="1" fill="#333"/>
</svg>
